<?xml version="1.0" encoding="UTF-8"?>
<svg width="17px" height="16px" viewBox="0 0 17 16" version="1.1" xmlns="http://www.w3.org/2000/svg" xmlns:xlink="http://www.w3.org/1999/xlink">
    <!-- Generator: sketchtool 59.1 (101010) - https://sketch.com -->
    <title>2F204976-8830-4B5E-A837-BA5ABED6322C</title>
    <desc>Created with sketchtool.</desc>
    <g id="Asset-Artboard-Page" stroke="none" stroke-width="1" fill="none" fill-rule="evenodd">
        <g id="Icons/ic_store-Icons/ic_calendar" transform="translate(0.982327, 0.000000)" fill="#808080" fill-rule="nonzero">
            <path d="M12.65625,12.65625 L12.65625,5.34375 L3.34375,5.34375 L3.34375,12.65625 L12.65625,12.65625 Z M10.65625,0.65625 L12,0.65625 L12,2 L12.65625,2 C13.0104184,2 13.3229153,2.13541531 13.59375,2.40625 C13.8645847,2.67708469 14,2.98958333 14,3.34375 L14,12.65625 C14,13.0104184 13.8645847,13.3229167 13.59375,13.59375 C13.3229153,13.8645847 13.0104184,14 12.65625,14 L3.34375,14 C2.96874812,14 2.65104297,13.869793 2.390625,13.609375 C2.13020703,13.348957 2,13.0312519 2,12.65625 L2,3.34375 C2,2.98958333 2.13020703,2.67708469 2.390625,2.40625 C2.65104297,2.13541531 2.96874812,2 3.34375,2 L4,2 L4,0.65625 L5.34375,0.65625 L5.34375,2 L10.65625,2 L10.65625,0.65625 Z M11.34375,8 L11.34375,11.34375 L8,11.34375 L8,8 L11.34375,8 Z" id="e"></path>
        </g>
    </g>
</svg>