<?xml version="1.0" encoding="UTF-8"?>
<svg width="25px" height="24px" viewBox="0 0 25 24" version="1.1" xmlns="http://www.w3.org/2000/svg" xmlns:xlink="http://www.w3.org/1999/xlink">
    <!-- Generator: sketchtool 59.1 (101010) - https://sketch.com -->
    <title>3BABA386-250C-4A33-89F1-9380E549D96F</title>
    <desc>Created with sketchtool.</desc>
    <g id="Asset-Artboard-Page" stroke="none" stroke-width="1" fill="none" fill-rule="evenodd">
        <g id="Icons/ic_reroute-Icons/ic_history" transform="translate(0.982327, 0.000000)" fill="#FFFFFF" fill-rule="nonzero">
            <path d="M12,8.015625 L13.5,8.015625 L13.5,12.234375 L17.015625,14.34375 L16.265625,15.5625 L12,12.984375 L12,8.015625 Z M6.609375,5.625 C8.39063391,3.87499125 10.5156127,3 12.984375,3 C15.4531373,3 17.5703037,3.87499125 19.3359375,5.625 C21.1015713,7.37500875 21.984375,9.4999875 21.984375,12 C21.984375,14.5000125 21.1015713,16.6249913 19.3359375,18.375 C17.5703037,20.1250087 15.4531373,21 12.984375,21 C11.9531198,21 10.8203187,20.7421901 9.5859375,20.2265625 C8.35155633,19.7109349 7.37500359,19.0937536 6.65625,18.375 L8.0625,16.921875 C9.43750688,18.2968819 11.0781155,18.984375 12.984375,18.984375 C14.9218847,18.984375 16.5781181,18.3046943 17.953125,16.9453125 C19.3281319,15.5859307 20.015625,13.9375097 20.015625,12 C20.015625,10.0624903 19.3281319,8.4140693 17.953125,7.0546875 C16.5781181,5.6953057 14.9218847,5.015625 12.984375,5.015625 C11.0468653,5.015625 9.3984443,5.6953057 8.0390625,7.0546875 C6.6796807,8.4140693 6,10.0624903 6,12 L9,12 L4.96875,16.03125 L4.875,15.890625 L0.984375,12 L3.984375,12 C3.984375,9.4999875 4.85936625,7.37500875 6.609375,5.625 Z" id="h"></path>
        </g>
    </g>
</svg>