<?xml version="1.0" encoding="UTF-8"?>
<svg width="17px" height="16px" viewBox="0 0 17 16" version="1.1" xmlns="http://www.w3.org/2000/svg" xmlns:xlink="http://www.w3.org/1999/xlink">
    <!-- Generator: sketchtool 59.1 (101010) - https://sketch.com -->
    <title>6FCBBCE8-F1CA-4072-BCDF-7117F4A5DFDE</title>
    <desc>Created with sketchtool.</desc>
    <g id="Asset-Artboard-Page" stroke="none" stroke-width="1" fill="none" fill-rule="evenodd">
        <g id="Icons/ic_store-Icons/ic_place" transform="translate(0.982327, 0.000000)" fill="#808080" fill-rule="nonzero">
            <path d="M6.8125,7.1875 C7.145835,7.50000156 7.54166437,7.65625 8,7.65625 C8.45833563,7.65625 8.84895672,7.49479328 9.171875,7.171875 C9.49479328,6.84895672 9.65625,6.45833563 9.65625,6 C9.65625,5.54166437 9.49479328,5.15104328 9.171875,4.828125 C8.84895672,4.50520672 8.45833563,4.34375 8,4.34375 C7.54166437,4.34375 7.15104328,4.50520672 6.828125,4.828125 C6.50520672,5.15104328 6.34375,5.54166437 6.34375,6 C6.34375,6.45833563 6.49999844,6.854165 6.8125,7.1875 Z M4.6875,2.71875 C5.60417125,1.80207875 6.70832687,1.34375 8,1.34375 C9.29167312,1.34375 10.3906205,1.79687047 11.296875,2.703125 C12.2031295,3.60937953 12.65625,4.70832687 12.65625,6 C12.65625,6.64583656 12.4947933,7.3854125 12.171875,8.21875 C11.8489567,9.0520875 11.4583356,9.83332969 11,10.5625 C10.5416644,11.2916703 10.0885439,11.9739552 9.640625,12.609375 C9.19270609,13.2447948 8.81250156,13.7499981 8.5,14.125 L8,14.65625 C7.87499938,14.5104159 7.70833437,14.3177095 7.5,14.078125 C7.29166563,13.8385405 6.91666937,13.3593786 6.375,12.640625 C5.83333063,11.9218714 5.35937703,11.2239617 4.953125,10.546875 C4.54687297,9.86978828 4.177085,9.10417094 3.84375,8.25 C3.510415,7.39582906 3.34375,6.64583656 3.34375,6 C3.34375,4.70832687 3.79166219,3.61458781 4.6875,2.71875 Z" id="p"></path>
        </g>
    </g>
</svg>