<?xml version="1.0" encoding="UTF-8"?>
<svg width="25px" height="24px" viewBox="0 0 25 24" version="1.1" xmlns="http://www.w3.org/2000/svg" xmlns:xlink="http://www.w3.org/1999/xlink">
    <!-- Generator: sketchtool 59.1 (101010) - https://sketch.com -->
    <title>373399E3-2CAF-46E6-9AFB-5769B9913254</title>
    <desc>Created with sketchtool.</desc>
    <g id="Asset-Artboard-Page" stroke="none" stroke-width="1" fill="none" fill-rule="evenodd">
        <g id="Icons/ic_reroute" transform="translate(0.982327, 0.000000)" fill="#FFFFFF" fill-rule="nonzero">
            <path d="M18,3 L21,7 L19,7 L19,7 L19,11.1090162 C19,11.3604062 18.9053163,11.602574 18.7348034,11.7872963 L14,16.915 L14,20 C14,20.5522847 13.5522847,21 13,21 L11,21 C10.4477153,21 10,20.5522847 10,20 L10,17 L11.856,16.072 L16.7348034,10.7872963 C16.9053163,10.602574 17,10.3604062 17,10.1090162 L17,7 L15,7 L18,3 Z M7,8 L7,10.1198007 C7,10.3647148 7.08987857,10.6011134 7.25259068,10.7841645 L7.25259068,10.7841645 L11,15 L9,16 L5.25259068,11.7841645 C5.08987857,11.6011134 5,11.3647148 5,11.1198007 L5,11.1198007 L5,8 L7,8 Z M6,3 L9,7 L3,7 L6,3 Z" id="Combined-Shape"></path>
        </g>
    </g>
</svg>